<?xml version="1.0" encoding="UTF-8" standalone="no"?>
<svg
   xmlns:dc="http://purl.org/dc/elements/1.1/"
   xmlns:cc="http://creativecommons.org/ns#"
   xmlns:rdf="http://www.w3.org/1999/02/22-rdf-syntax-ns#"
   xmlns:svg="http://www.w3.org/2000/svg"
   xmlns="http://www.w3.org/2000/svg"
   xmlns:sodipodi="http://sodipodi.sourceforge.net/DTD/sodipodi-0.dtd"
   xmlns:inkscape="http://www.inkscape.org/namespaces/inkscape"
   width="100%"
   height="100%"
   viewBox="0 0 272 656"
   version="1.1"
   xml:space="preserve"
   style="fill-rule:evenodd;clip-rule:evenodd;stroke-linejoin:round;stroke-miterlimit:1.41421;"
   id="svg2"
   inkscape:version="0.91 r13725"
   sodipodi:docname="bar-0 (copy).svg"><metadata
     id="metadata12"><rdf:RDF><cc:Work
         rdf:about=""><dc:format>image/svg+xml</dc:format><dc:type
           rdf:resource="http://purl.org/dc/dcmitype/StillImage" /></cc:Work></rdf:RDF></metadata><defs
     id="defs10" /><sodipodi:namedview
     pagecolor="#ffffff"
     bordercolor="#666666"
     borderopacity="1"
     objecttolerance="10"
     gridtolerance="10"
     guidetolerance="10"
     inkscape:pageopacity="0"
     inkscape:pageshadow="2"
     inkscape:window-width="1920"
     inkscape:window-height="1056"
     id="namedview8"
     showgrid="false"
     inkscape:zoom="1.4390244"
     inkscape:cx="-169.89503"
     inkscape:cy="361.86531"
     inkscape:window-x="1920"
     inkscape:window-y="24"
     inkscape:window-maximized="1"
     inkscape:current-layer="svg2" /><g
     transform="matrix(1,0,0,1,-760,-1016)"
     id="g4"><path
       d="M1024,1056L1024,1632C1024,1641.33 1021,1649 1015,1655C1009,1661 1001.33,1664 992,1664L800,1664C790.667,1664 783,1661 777,1655C771,1649 768,1641.33 768,1632L768,1056C768,1046.67 771,1039 777,1033C783,1027 790.667,1024 800,1024L992,1024C1001.33,1024 1009,1027 1015,1033C1021,1039 1024,1046.67 1024,1056Z"
       style="fill:white;stroke:#ff0000;stroke-width:16px;stroke-opacity:1"
       id="path6" /></g><path
     style="opacity:0.97299996;fill:#ff0000;fill-opacity:1;stroke:none;stroke-width:1.25;stroke-miterlimit:4;stroke-dasharray:none;stroke-opacity:1"
     d="M 28.353357,653.88864 C 21.517509,651.77575 16.321369,648.34407 10.662966,642.20543 -0.27184347,630.34257 0.56574442,656.41784 0.56574442,327.86504 0.56574442,-4.962682 -0.55186221,25.123402 12.288663,12.282877 24.537202,0.03433759 18.987021,0.55995892 136.07422,0.55995892 c 113.82476,0 110.63458,-0.25362348 121.93572,9.69404308 3.45997,3.045585 7.77292,8.520941 9.58434,12.167456 l 3.2935,6.630026 0,298.813556 c 0,274.92523 -0.18364,299.21795 -2.29716,303.87193 -3.17573,6.99305 -11.69664,16.09398 -18.4555,19.71178 l -5.65412,3.02646 -106.32204,0.24509 C 79.681846,654.85511 30.269323,654.48084 28.353357,653.88864 Z M 237.88641,639.82515 c 7.2359,-1.55183 12.93387,-5.89698 16.32023,-12.4455 1.86674,-3.60986 2.06626,-37.9009 1.74998,-300.752 l -0.35698,-296.677594 -2.90745,-3.923862 c -1.5991,-2.158124 -4.97507,-5.331066 -7.50214,-7.050981 l -4.5947,-3.127118 -104.52113,0 -104.52114,0 -4.689407,3.160192 c -2.579176,1.738105 -6.111495,5.270425 -7.849601,7.8496 l -3.160192,4.689408 0,295.883735 c 0,290.21597 0.05172,295.9851 2.699598,301.17538 3.107275,6.09076 7.557373,9.40005 14.997675,11.1529 7.63405,1.7985 195.973157,1.85919 204.335257,0.0659 l 0,-4e-5 z"
     id="path4142"
     inkscape:connector-curvature="0" /><path
     style="opacity:0.97299996;fill:#ff0000;fill-opacity:1;stroke:none;stroke-width:1.25;stroke-miterlimit:4;stroke-dasharray:none;stroke-opacity:1"
     d="M 23.497948,651.13029 C 20.440321,649.70637 14.967133,645.47627 11.33531,641.73008 5.0156188,635.21137 4.6593572,634.41352 3.040844,623.15465 0.52728656,605.66955 0.52682166,52.541418 3.040349,34.183438 5.0159632,19.754201 5.4770804,18.787062 14.037333,11.118579 24.281607,1.9415067 25.330146,1.8315752 110.36235,1.0196233 c 84.35618,-0.80549667 133.07031,0.6284381 139.81358,4.1155102 5.0215,2.5967197 14.74671,12.8919125 17.85361,18.8999715 2.04592,3.956408 2.2081,30.608285 1.85516,304.879275 -0.31819,247.27044 -0.71503,301.11998 -2.23874,303.79396 -3.07213,5.39129 -11.70621,14.31192 -17.22282,17.7944 l -5.19199,3.27756 -108.08694,-0.0306 C 34.663525,653.72084 28.768919,653.58497 23.497948,651.13029 Z M 245.37957,637.42531 c 2.78743,-1.73338 6.22726,-4.8605 7.64406,-6.94915 2.48551,-3.66413 2.58888,-14.29067 2.94222,-302.44346 l 0.36621,-298.645902 -6.76935,-6.769352 -6.76937,-6.769351 -106.71912,0 -106.719129,0 -6.766283,6.766281 -6.766281,6.766283 0.363133,298.710261 c 0.343662,282.69216 0.494598,298.91089 2.814695,302.45165 3.014209,4.60006 7.997328,7.96716 13.913761,9.40156 2.465176,0.59767 50.138069,0.98454 105.939764,0.85972 l 101.45763,-0.22694 5.06806,-3.1516 z"
     id="path4144"
     inkscape:connector-curvature="0" /></svg>