<?xml version="1.0" encoding="UTF-8" standalone="no"?>
<!DOCTYPE svg PUBLIC "-//W3C//DTD SVG 1.1//EN" "http://www.w3.org/Graphics/SVG/1.1/DTD/svg11.dtd">
<svg width="100%" height="100%" viewBox="0 0 272 656" version="1.1" xmlns="http://www.w3.org/2000/svg" xmlns:xlink="http://www.w3.org/1999/xlink" xml:space="preserve" xmlns:serif="http://www.serif.com/" style="fill-rule:evenodd;clip-rule:evenodd;stroke-linejoin:round;stroke-miterlimit:1.41421;">
    <g transform="matrix(1,0,0,1,-3895.81,-955.167)">
        <g transform="matrix(5.31132,0,0,5.31132,3791.87,1038.27)">
            <path d="M25.986,80.5L27.992,77.092C28.015,77.104 28.035,77.121 28.058,77.133L43.037,84.414L43.037,88.441C43.037,89.828 44.162,90.953 45.551,90.953C46.938,90.953 48.063,89.828 48.063,88.441L48.063,84.212L62.182,75.181L65.053,79.956C65.526,80.739 66.356,81.173 67.209,81.173C67.65,81.173 68.096,81.056 68.502,80.814C69.691,80.097 70.074,78.554 69.359,77.365L48.82,43.228C51.47,41.98 53.314,39.289 53.314,36.169C53.314,31.864 49.812,28.36 45.507,28.36C41.204,28.36 37.702,31.864 37.702,36.169C37.702,39.259 39.509,41.927 42.118,43.191C37.636,50.809 21.655,77.952 21.655,77.952C21.655,77.952 19.93,80.713 22.186,81.813C24.75,83.063 25.986,80.5 25.986,80.5ZM48.063,51.719L54.563,62.52L48.063,66.17L48.063,51.719ZM43.037,66.619L35.978,63.527L43.037,51.537L43.037,66.619ZM48.063,78.248L48.063,71.932L57.155,66.828L59.591,70.875L48.063,78.248ZM45.508,33.385C47.041,33.385 48.289,34.634 48.289,36.168C48.289,37.702 47.041,38.949 45.508,38.949C43.975,38.949 42.729,37.702 42.729,36.168C42.729,34.634 43.975,33.385 45.508,33.385ZM30.547,72.754L33.412,67.889L43.037,72.104L43.037,78.827L30.547,72.754Z" style="fill-rule:nonzero;"/>
        </g>
        <g transform="matrix(1.07394e-16,1.75388,-1.75388,1.07394e-16,5774.2,181.709)">
            <path d="M576.851,944.226L551.89,990.914L577.695,1040.2L547.672,1040.2L535.859,1016.93L525.875,1040.2L496.343,1040.2L522.711,991.687L497.75,944.226L527.492,944.226L538.672,966.023L547.672,944.226L576.851,944.226Z" style="fill-rule:nonzero;"/>
        </g>
    </g>
</svg>
