<?xml version="1.0" encoding="UTF-8" standalone="no"?>
<!DOCTYPE svg PUBLIC "-//W3C//DTD SVG 1.1//EN" "http://www.w3.org/Graphics/SVG/1.1/DTD/svg11.dtd">
<svg width="100%" height="100%" viewBox="0 0 272 656" version="1.1" xmlns="http://www.w3.org/2000/svg" xmlns:xlink="http://www.w3.org/1999/xlink" xml:space="preserve" xmlns:serif="http://www.serif.com/" style="fill-rule:evenodd;clip-rule:evenodd;stroke-linejoin:round;stroke-miterlimit:1.41421;">
    <g transform="matrix(1,0,0,1,-3895.81,-955.167)">
        <g transform="matrix(-1.3932,-1.70617e-16,1.70617e-16,-1.3932,4857.48,2665.52)">
            <path d="M576.851,944.226L551.89,990.914L577.695,1040.2L547.672,1040.2L535.859,1016.93L525.875,1040.2L496.343,1040.2L522.711,991.687L497.75,944.226L527.492,944.226L538.672,966.023L547.672,944.226L576.851,944.226Z" style="fill-rule:nonzero;stroke:black;stroke-width:0.57px;"/>
        </g>
        <g transform="matrix(8.98888,0,0,8.98888,3895.81,1139.34)">
            <path d="M14,2C13.219,2 12.687,2.438 12,3.016L6,8L2,8C0.9,8 0,8.9 0,10L0,22C0,23.1 0.9,24 2,24L6,24L12,28.984C12.688,29.563 13.219,30 14,30C15.219,30 16,29.016 16,28L16,4C16,2.984 15.219,2 14,2Z" style="fill-rule:nonzero;stroke:black;stroke-width:0.11px;stroke-miterlimit:1.41421;"/>
        </g>
    </g>
</svg>
