<?xml version="1.0" encoding="UTF-8" standalone="no"?>
<!DOCTYPE svg PUBLIC "-//W3C//DTD SVG 1.1//EN" "http://www.w3.org/Graphics/SVG/1.1/DTD/svg11.dtd">
<svg width="100%" height="100%" viewBox="0 0 272 656" version="1.1" xmlns="http://www.w3.org/2000/svg" xmlns:xlink="http://www.w3.org/1999/xlink" xml:space="preserve" xmlns:serif="http://www.serif.com/" style="fill-rule:evenodd;clip-rule:evenodd;stroke-linejoin:round;stroke-miterlimit:1.41421;">
    <g transform="matrix(1,0,0,1,-3895.81,-956.573)">
        <g>
            <g>
                <g transform="matrix(8.98888,0,0,8.98888,3895.81,1140.75)">
                    <path d="M14,2C13.219,2 12.687,2.438 12,3.016L6,8L2,8C0.9,8 0,8.9 0,10L0,22C0,23.1 0.9,24 2,24L6,24L12,28.984C12.688,29.563 13.219,30 14,30C15.219,30 16,29.016 16,28L16,4C16,2.984 15.219,2 14,2Z" style="fill-rule:nonzero;stroke:black;stroke-width:0.11px;"/>
                </g>
                <g>
                    <g transform="matrix(3.27004e-16,5.34038,-5.34038,3.27004e-16,4189.25,1041.04)">
                        <path d="M61.457,22.071L61.459,22.071C62.158,22.071 62.855,21.78 63.352,21.212C64.266,20.167 64.159,18.58 63.114,17.667C60.968,15.79 58.548,14.308 55.975,13.206C52.668,11.788 49.1,11.017 45.455,11.017L45.453,11.017L45.451,11.017C39.896,11.017 34.506,12.761 29.992,15.955C29.236,16.488 28.498,17.053 27.795,17.666C26.75,18.58 26.643,20.166 27.557,21.211C28.014,21.735 28.641,22.024 29.286,22.065C29.376,22.071 29.466,22.061 29.557,22.057C29.625,22.054 29.694,22.06 29.762,22.051C30.244,21.991 30.713,21.792 31.108,21.448C31.727,20.905 32.383,20.414 33.053,19.948C36.694,17.425 41.01,16.042 45.453,16.042C48.236,16.042 50.969,16.594 53.519,17.616C55.792,18.526 57.923,19.807 59.804,21.451C60.281,21.867 60.871,22.071 61.457,22.071Z" style="fill-rule:nonzero;"/>
                    </g>
                    <g transform="matrix(3.27004e-16,5.34038,-5.34038,3.27004e-16,4173.56,1041.83)">
                        <path d="M69.971,9.815C63.157,3.86 54.451,0.581 45.455,0.581C36.457,0.581 27.75,3.86 20.937,9.814C19.892,10.727 19.787,12.315 20.699,13.359C21.613,14.404 23.201,14.51 24.244,13.597C30.14,8.444 37.674,5.606 45.455,5.606C53.234,5.606 60.766,8.444 66.664,13.599C67.141,14.015 67.728,14.219 68.316,14.219C69.015,14.219 69.712,13.928 70.209,13.36C71.123,12.315 71.016,10.728 69.971,9.815Z" style="fill-rule:nonzero;"/>
                    </g>
                    <g transform="matrix(3.27004e-16,5.34038,-5.34038,3.27004e-16,4204.95,1041.83)">
                        <path d="M33.357,27.151C33.357,27.168 33.355,27.184 33.357,27.2C33.418,27.68 33.617,28.15 33.961,28.543C34.875,29.587 36.465,29.691 37.506,28.776C37.74,28.573 37.983,28.383 38.229,28.199C39.717,27.086 41.428,26.331 43.233,25.99C43.253,25.986 43.272,25.98 43.292,25.976C43.329,25.969 43.366,25.967 43.403,25.961C44.077,25.844 44.762,25.779 45.454,25.779C48.372,25.78 51.194,26.843 53.403,28.775C53.522,28.879 53.647,28.97 53.78,29.048C54.175,29.282 54.616,29.398 55.057,29.398C55.756,29.398 56.452,29.108 56.95,28.541C57.864,27.496 57.757,25.909 56.714,24.996C56.712,24.995 56.712,24.994 56.712,24.994C56.708,24.991 56.706,24.989 56.702,24.986C53.579,22.257 49.585,20.754 45.456,20.754L45.454,20.754L45.452,20.754C44.417,20.754 43.389,20.849 42.384,21.033C39.995,21.471 37.73,22.426 35.724,23.818C35.62,23.89 35.511,23.953 35.408,24.027C35.375,24.052 35.344,24.082 35.308,24.107C34.929,24.387 34.556,24.679 34.199,24.993C33.806,25.336 33.547,25.775 33.424,26.244C33.406,26.307 33.404,26.37 33.393,26.433C33.375,26.528 33.352,26.621 33.346,26.718C33.334,26.863 33.342,27.007 33.357,27.151Z" style="fill-rule:nonzero;"/>
                    </g>
                </g>
            </g>
        </g>
    </g>
</svg>
